<?xml version="1.0" encoding="UTF-8"?>
<!DOCTYPE svg PUBLIC "-//W3C//DTD SVG 1.1//EN" "http://www.w3.org/Graphics/SVG/1.1/DTD/svg11.dtd">
<svg xmlns="http://www.w3.org/2000/svg" xmlns:xlink="http://www.w3.org/1999/xlink" version="1.1" width="1030px" height="718px" viewBox="-0.5 -0.5 1030 718"><defs/><g><path d="M 0 0 L 1029 0 L 1029 717 L 0 717 L 0 0 Z" fill="none" stroke="none" pointer-events="all"/><path d="M 5 5 L 5 712 L 5 712 L 1024 712 L 1024 5 L 5 5" fill="none" stroke="none" pointer-events="all"/><path d="M 0 0 L 1029 0 L 1029 717 L 0 717 L 0 0 Z" fill="none" stroke="rgb(0, 0, 0)" stroke-miterlimit="10" pointer-events="all"/><rect x="626" y="5" width="398" height="340" fill="#ffffff" stroke="rgb(0, 0, 0)" pointer-events="all"/><rect x="360" y="5" width="260" height="340" fill="#ffffff" stroke="rgb(0, 0, 0)" pointer-events="all"/><rect x="4" y="5" width="350" height="707" fill="rgb(255, 255, 255)" stroke="rgb(0, 0, 0)" pointer-events="all"/><rect x="359" y="457" width="262" height="255" fill="#ffffff" stroke="rgb(0, 0, 0)" pointer-events="all"/><rect x="626" y="452" width="398" height="260" fill="#ffffff" stroke="rgb(0, 0, 0)" pointer-events="all"/><rect x="359" y="350" width="665" height="102" fill="#ffffff" stroke="rgb(0, 0, 0)" pointer-events="all"/><rect x="954.35" y="359.42" width="71.93" height="5" fill="rgb(255, 255, 255)" stroke="rgb(0, 0, 0)" transform="rotate(90,990.32,397.96)" pointer-events="all"/><path d="M 954.35 364.42 C 954.35 404.15 986.55 436.35 1026.28 436.35 L 1026.28 364.42" fill="none" stroke="rgb(0, 0, 0)" stroke-miterlimit="10" transform="rotate(90,990.32,397.96)" pointer-events="all"/><rect x="375" y="452" width="65.33" height="5" fill="rgb(255, 255, 255)" stroke="rgb(0, 0, 0)" transform="translate(407.66,0)scale(-1,1)translate(-407.66,0)" pointer-events="all"/><path d="M 375 457 C 375 493.08 404.25 522.33 440.33 522.33 L 440.33 457" fill="none" stroke="rgb(0, 0, 0)" stroke-miterlimit="10" transform="translate(407.66,0)scale(-1,1)translate(-407.66,0)" pointer-events="all"/><rect x="554" y="285.71" width="60" height="5" fill="rgb(255, 255, 255)" stroke="rgb(0, 0, 0)" transform="translate(584,0)scale(-1,1)translate(-584,0)rotate(180,584,317.86)" pointer-events="all"/><path d="M 554 290.71 C 554 323.85 580.86 350.71 614 350.71 L 614 290.71" fill="none" stroke="rgb(0, 0, 0)" stroke-miterlimit="10" transform="translate(584,0)scale(-1,1)translate(-584,0)rotate(180,584,317.86)" pointer-events="all"/><rect x="283.62" y="359.9" width="76.27" height="5" fill="rgb(255, 255, 255)" stroke="rgb(0, 0, 0)" transform="translate(321.75,0)scale(-1,1)translate(-321.75,0)rotate(-90,321.75,397.33)" pointer-events="all"/><path d="M 283.62 364.9 C 283.62 407.02 317.77 441.17 359.89 441.17 L 359.89 364.9" fill="none" stroke="rgb(0, 0, 0)" stroke-miterlimit="10" transform="translate(321.75,0)scale(-1,1)translate(-321.75,0)rotate(-90,321.75,397.33)" pointer-events="all"/><rect x="738" y="285.71" width="60" height="5" fill="rgb(255, 255, 255)" stroke="rgb(0, 0, 0)" transform="translate(768,0)scale(-1,1)translate(-768,0)rotate(180,768,317.86)" pointer-events="all"/><path d="M 738 290.71 C 738 323.85 764.86 350.71 798 350.71 L 798 290.71" fill="none" stroke="rgb(0, 0, 0)" stroke-miterlimit="10" transform="translate(768,0)scale(-1,1)translate(-768,0)rotate(180,768,317.86)" pointer-events="all"/><rect x="837" y="452" width="187" height="5" fill="#ffffff" stroke="rgb(0, 0, 0)" pointer-events="all"/><rect x="887" y="457" width="137" height="255" fill="#ffffff" stroke="rgb(0, 0, 0)" pointer-events="all"/><path d="M 374 472 L 604 472 L 604 692 L 374 692 L 374 472 Z" fill="rgb(255, 255, 255)" stroke="none" pointer-events="all"/><path d="M 379 477 L 379 687 L 379 687 L 599 687 L 599 477 L 379 477" fill="none" stroke="none" pointer-events="all"/><path d="M 374 472 L 604 472 L 604 692 L 374 692 L 374 472 Z" fill="none" stroke="rgb(0, 0, 0)" stroke-miterlimit="10" pointer-events="all"/><path d="M 41 25.63 L 324 25.63 L 324 682 L 41 682 L 41 25.63 Z" fill="rgb(255, 255, 255)" stroke="none" pointer-events="all"/><path d="M 46 30.63 L 46 677 L 46 677 L 319 677 L 319 30.63 L 46 30.63" fill="none" stroke="none" pointer-events="all"/><path d="M 41 25.63 L 324 25.63 L 324 682 L 41 682 L 41 25.63 Z" fill="none" stroke="rgb(0, 0, 0)" stroke-miterlimit="10" pointer-events="all"/><path d="M 0 0 L 1029 0 L 1029 717 L 0 717 L 0 0 Z" fill="none" stroke="none" pointer-events="all"/><path d="M 5 5 L 5 712 L 5 712 L 1024 712 L 1024 5 L 5 5" fill="none" stroke="none" pointer-events="all"/><path d="M 0 0 L 1029 0 L 1029 717 L 0 717 L 0 0 Z" fill="none" stroke="rgb(0, 0, 0)" stroke-miterlimit="10" pointer-events="all"/><path d="M 384 605 L 464 605 L 464 685 L 384 685 L 384 605 Z" fill="rgb(255, 255, 255)" stroke="none" pointer-events="all"/><path d="M 389 610 L 389 680 L 389 680 L 459 680 L 459 610 L 389 610" fill="none" stroke="none" pointer-events="all"/><path d="M 384 605 L 464 605 L 464 685 L 384 685 L 384 605 Z" fill="none" stroke="rgb(0, 0, 0)" stroke-miterlimit="10" pointer-events="all"/><path d="M 509 488.37 L 589 488.37 L 589 568.37 L 509 568.37 L 509 488.37 Z" fill="rgb(255, 255, 255)" stroke="none" pointer-events="all"/><path d="M 514 493.37 L 514 563.37 L 514 563.37 L 584 563.37 L 584 493.37 L 514 493.37" fill="none" stroke="none" pointer-events="all"/><path d="M 509 488.37 L 589 488.37 L 589 568.37 L 509 568.37 L 509 488.37 Z" fill="none" stroke="rgb(0, 0, 0)" stroke-miterlimit="10" pointer-events="all"/><path d="M 384 22 L 589 22 L 589 318.63 L 384 318.63 L 384 22 Z" fill="rgb(255, 255, 255)" stroke="none" pointer-events="all"/><path d="M 389 27 L 389 313.63 L 389 313.63 L 584 313.63 L 584 27 L 389 27" fill="none" stroke="none" pointer-events="all"/><path d="M 384 22 L 589 22 L 589 318.63 L 384 318.63 L 384 22 Z" fill="none" stroke="rgb(0, 0, 0)" stroke-miterlimit="10" pointer-events="all"/><path d="M 384 362 L 589 362 L 589 442 L 384 442 L 384 362 Z" fill="rgb(255, 255, 255)" stroke="none" pointer-events="all"/><path d="M 389 367 L 389 437 L 389 437 L 584 437 L 584 367 L 389 367" fill="none" stroke="none" pointer-events="all"/><path d="M 384 362 L 589 362 L 589 442 L 384 442 L 384 362 Z" fill="none" stroke="rgb(0, 0, 0)" stroke-miterlimit="10" pointer-events="all"/><path d="M 634 362 L 1014 362 L 1014 442 L 634 442 L 634 362 Z" fill="rgb(255, 255, 255)" stroke="none" pointer-events="all"/><path d="M 639 367 L 639 437 L 639 437 L 1009 437 L 1009 367 L 639 367" fill="none" stroke="none" pointer-events="all"/><path d="M 634 362 L 1014 362 L 1014 442 L 634 442 L 634 362 Z" fill="none" stroke="rgb(0, 0, 0)" stroke-miterlimit="10" pointer-events="all"/><path d="M 144 537 L 224 537 L 224 617 L 144 617 L 144 537 Z" fill="rgb(255, 255, 255)" stroke="none" pointer-events="all"/><path d="M 149 542 L 149 612 L 149 612 L 219 612 L 219 542 L 149 542" fill="none" stroke="none" pointer-events="all"/><path d="M 144 537 L 224 537 L 224 617 L 144 617 L 144 537 Z" fill="none" stroke="rgb(0, 0, 0)" stroke-miterlimit="10" pointer-events="all"/><path d="M 144 292 L 224 292 L 224 372 L 144 372 L 144 292 Z" fill="rgb(255, 255, 255)" stroke="none" pointer-events="all"/><path d="M 149 297 L 149 367 L 149 367 L 219 367 L 219 297 L 149 297" fill="none" stroke="none" pointer-events="all"/><path d="M 144 292 L 224 292 L 224 372 L 144 372 L 144 292 Z" fill="none" stroke="rgb(0, 0, 0)" stroke-miterlimit="10" pointer-events="all"/><path d="M 144 82 L 224 82 L 224 162 L 144 162 L 144 82 Z" fill="rgb(255, 255, 255)" stroke="none" pointer-events="all"/><path d="M 149 87 L 149 157 L 149 157 L 219 157 L 219 87 L 149 87" fill="none" stroke="none" pointer-events="all"/><path d="M 144 82 L 224 82 L 224 162 L 144 162 L 144 82 Z" fill="none" stroke="rgb(0, 0, 0)" stroke-miterlimit="10" pointer-events="all"/><path d="M 644 472 L 814 472 L 814 702 L 644 702 L 644 472 Z" fill="rgb(255, 255, 255)" stroke="none" pointer-events="all"/><path d="M 649 477 L 649 697 L 649 697 L 809 697 L 809 477 L 649 477" fill="none" stroke="none" pointer-events="all"/><path d="M 644 472 L 814 472 L 814 702 L 644 702 L 644 472 Z" fill="none" stroke="rgb(0, 0, 0)" stroke-miterlimit="10" pointer-events="all"/><path d="M 844 472 L 1014 472 L 1014 702 L 844 702 L 844 472 Z" fill="rgb(255, 255, 255)" stroke="none" pointer-events="all"/><path d="M 849 477 L 849 697 L 849 697 L 1009 697 L 1009 477 L 849 477" fill="none" stroke="none" pointer-events="all"/><path d="M 844 472 L 1014 472 L 1014 702 L 844 702 L 844 472 Z" fill="none" stroke="rgb(0, 0, 0)" stroke-miterlimit="10" pointer-events="all"/><path d="M 634 22 L 1010 22 L 1010 312 L 634 312 L 634 22 Z" fill="rgb(255, 255, 255)" stroke="none" pointer-events="all"/><path d="M 639 27 L 639 307 L 639 307 L 1005 307 L 1005 27 L 639 27" fill="none" stroke="none" pointer-events="all"/><path d="M 634 22 L 1010 22 L 1010 312 L 634 312 L 634 22 Z" fill="none" stroke="rgb(0, 0, 0)" stroke-miterlimit="10" pointer-events="all"/><path d="M 684 130 L 964 130 L 964 210 L 684 210 L 684 130 Z" fill="rgb(255, 255, 255)" stroke="none" pointer-events="all"/><path d="M 689 135 L 689 205 L 689 205 L 959 205 L 959 135 L 689 135" fill="none" stroke="none" pointer-events="all"/><path d="M 684 130 L 964 130 L 964 210 L 684 210 L 684 130 Z" fill="none" stroke="rgb(0, 0, 0)" stroke-miterlimit="10" pointer-events="all"/></g></svg>