<?xml version="1.0" encoding="UTF-8"?>
<!DOCTYPE svg PUBLIC "-//W3C//DTD SVG 1.1//EN" "http://www.w3.org/Graphics/SVG/1.1/DTD/svg11.dtd">
<svg xmlns="http://www.w3.org/2000/svg" xmlns:xlink="http://www.w3.org/1999/xlink" version="1.1" width="1030px" height="718px" viewBox="-0.5 -0.5 1030 718"><defs/><g><path d="M 0 0 L 1029 0 L 1029 717 L 0 717 L 0 0 Z" fill="none" stroke="none" pointer-events="all"/><path d="M 5 5 L 5 712 L 5 712 L 1024 712 L 1024 5 L 5 5" fill="none" stroke="none" pointer-events="all"/><path d="M 0 0 L 1029 0 L 1029 717 L 0 717 L 0 0 Z" fill="none" stroke="rgb(0, 0, 0)" stroke-miterlimit="10" pointer-events="all"/><rect x="626" y="5" width="398" height="340" fill="#ffffff" stroke="rgb(0, 0, 0)" pointer-events="all"/><rect x="360" y="5" width="260" height="340" fill="#ffffff" stroke="rgb(0, 0, 0)" pointer-events="all"/><rect x="4" y="5" width="350" height="707" fill="rgb(255, 255, 255)" stroke="rgb(0, 0, 0)" pointer-events="all"/><rect x="359" y="457" width="262" height="255" fill="#ffffff" stroke="rgb(0, 0, 0)" pointer-events="all"/><rect x="626" y="452" width="398" height="260" fill="#ffffff" stroke="rgb(0, 0, 0)" pointer-events="all"/><rect x="359" y="350" width="665" height="102" fill="#ffffff" stroke="rgb(0, 0, 0)" pointer-events="all"/><rect x="954.35" y="359.42" width="71.93" height="5" fill="rgb(255, 255, 255)" stroke="rgb(0, 0, 0)" transform="rotate(90,990.32,397.96)" pointer-events="all"/><path d="M 954.35 364.42 C 954.35 404.15 986.55 436.35 1026.28 436.35 L 1026.28 364.42" fill="none" stroke="rgb(0, 0, 0)" stroke-miterlimit="10" transform="rotate(90,990.32,397.96)" pointer-events="all"/><rect x="375" y="452" width="65.33" height="5" fill="rgb(255, 255, 255)" stroke="rgb(0, 0, 0)" transform="translate(407.66,0)scale(-1,1)translate(-407.66,0)" pointer-events="all"/><path d="M 375 457 C 375 493.08 404.25 522.33 440.33 522.33 L 440.33 457" fill="none" stroke="rgb(0, 0, 0)" stroke-miterlimit="10" transform="translate(407.66,0)scale(-1,1)translate(-407.66,0)" pointer-events="all"/><rect x="554" y="285.71" width="60" height="5" fill="rgb(255, 255, 255)" stroke="rgb(0, 0, 0)" transform="translate(584,0)scale(-1,1)translate(-584,0)rotate(180,584,317.86)" pointer-events="all"/><path d="M 554 290.71 C 554 323.85 580.86 350.71 614 350.71 L 614 290.71" fill="none" stroke="rgb(0, 0, 0)" stroke-miterlimit="10" transform="translate(584,0)scale(-1,1)translate(-584,0)rotate(180,584,317.86)" pointer-events="all"/><rect x="283.62" y="359.9" width="76.27" height="5" fill="rgb(255, 255, 255)" stroke="rgb(0, 0, 0)" transform="translate(321.75,0)scale(-1,1)translate(-321.75,0)rotate(-90,321.75,397.33)" pointer-events="all"/><path d="M 283.62 364.9 C 283.62 407.02 317.77 441.17 359.89 441.17 L 359.89 364.9" fill="none" stroke="rgb(0, 0, 0)" stroke-miterlimit="10" transform="translate(321.75,0)scale(-1,1)translate(-321.75,0)rotate(-90,321.75,397.33)" pointer-events="all"/><rect x="738" y="285.71" width="60" height="5" fill="rgb(255, 255, 255)" stroke="rgb(0, 0, 0)" transform="translate(768,0)scale(-1,1)translate(-768,0)rotate(180,768,317.86)" pointer-events="all"/><path d="M 738 290.71 C 738 323.85 764.86 350.71 798 350.71 L 798 290.71" fill="none" stroke="rgb(0, 0, 0)" stroke-miterlimit="10" transform="translate(768,0)scale(-1,1)translate(-768,0)rotate(180,768,317.86)" pointer-events="all"/><rect x="837" y="452" width="187" height="5" fill="#ffffff" stroke="rgb(0, 0, 0)" pointer-events="all"/><rect x="887" y="457" width="137" height="255" fill="#ffffff" stroke="rgb(0, 0, 0)" pointer-events="all"/><path d="M 0 0 L 1029 0 L 1029 717 L 0 717 L 0 0 Z" fill="none" stroke="none" pointer-events="all"/><path d="M 5 5 L 5 712 L 5 712 L 1024 712 L 1024 5 L 5 5" fill="none" stroke="none" pointer-events="all"/><path d="M 0 0 L 1029 0 L 1029 717 L 0 717 L 0 0 Z" fill="none" stroke="rgb(0, 0, 0)" stroke-miterlimit="10" pointer-events="all"/><path d="M 384 605 L 464 605 L 464 685 L 384 685 L 384 605 Z" fill="rgb(255, 255, 255)" stroke="none" pointer-events="all"/><path d="M 389 610 L 389 680 L 389 680 L 459 680 L 459 610 L 389 610" fill="none" stroke="none" pointer-events="all"/><path d="M 384 605 L 464 605 L 464 685 L 384 685 L 384 605 Z" fill="none" stroke="rgb(0, 0, 0)" stroke-miterlimit="10" pointer-events="all"/><path d="M 509 605 L 589 605 L 589 685 L 509 685 L 509 605 Z" fill="rgb(255, 255, 255)" stroke="none" pointer-events="all"/><path d="M 514 610 L 514 680 L 514 680 L 584 680 L 584 610 L 514 610" fill="none" stroke="none" pointer-events="all"/><path d="M 509 605 L 589 605 L 589 685 L 509 685 L 509 605 Z" fill="none" stroke="rgb(0, 0, 0)" stroke-miterlimit="10" pointer-events="all"/><path d="M 384 488.37 L 464 488.37 L 464 568.37 L 384 568.37 L 384 488.37 Z" fill="rgb(255, 255, 255)" stroke="none" pointer-events="all"/><path d="M 389 493.37 L 389 563.37 L 389 563.37 L 459 563.37 L 459 493.37 L 389 493.37" fill="none" stroke="none" pointer-events="all"/><path d="M 384 488.37 L 464 488.37 L 464 568.37 L 384 568.37 L 384 488.37 Z" fill="none" stroke="rgb(0, 0, 0)" stroke-miterlimit="10" pointer-events="all"/><path d="M 509 488.37 L 589 488.37 L 589 568.37 L 509 568.37 L 509 488.37 Z" fill="rgb(255, 255, 255)" stroke="none" pointer-events="all"/><path d="M 514 493.37 L 514 563.37 L 514 563.37 L 584 563.37 L 584 493.37 L 514 493.37" fill="none" stroke="none" pointer-events="all"/><path d="M 509 488.37 L 589 488.37 L 589 568.37 L 509 568.37 L 509 488.37 Z" fill="none" stroke="rgb(0, 0, 0)" stroke-miterlimit="10" pointer-events="all"/><path d="M 384 238.63 L 464 238.63 L 464 318.63 L 384 318.63 L 384 238.63 Z" fill="rgb(255, 255, 255)" stroke="none" pointer-events="all"/><path d="M 389 243.63 L 389 313.63 L 389 313.63 L 459 313.63 L 459 243.63 L 389 243.63" fill="none" stroke="none" pointer-events="all"/><path d="M 384 238.63 L 464 238.63 L 464 318.63 L 384 318.63 L 384 238.63 Z" fill="none" stroke="rgb(0, 0, 0)" stroke-miterlimit="10" pointer-events="all"/><path d="M 509 238.63 L 589 238.63 L 589 318.63 L 509 318.63 L 509 238.63 Z" fill="rgb(255, 255, 255)" stroke="none" pointer-events="all"/><path d="M 514 243.63 L 514 313.63 L 514 313.63 L 584 313.63 L 584 243.63 L 514 243.63" fill="none" stroke="none" pointer-events="all"/><path d="M 509 238.63 L 589 238.63 L 589 318.63 L 509 318.63 L 509 238.63 Z" fill="none" stroke="rgb(0, 0, 0)" stroke-miterlimit="10" pointer-events="all"/><path d="M 384 130 L 464 130 L 464 210 L 384 210 L 384 130 Z" fill="rgb(255, 255, 255)" stroke="none" pointer-events="all"/><path d="M 389 135 L 389 205 L 389 205 L 459 205 L 459 135 L 389 135" fill="none" stroke="none" pointer-events="all"/><path d="M 384 130 L 464 130 L 464 210 L 384 210 L 384 130 Z" fill="none" stroke="rgb(0, 0, 0)" stroke-miterlimit="10" pointer-events="all"/><path d="M 509 130 L 589 130 L 589 210 L 509 210 L 509 130 Z" fill="rgb(255, 255, 255)" stroke="none" pointer-events="all"/><path d="M 514 135 L 514 205 L 514 205 L 584 205 L 584 135 L 514 135" fill="none" stroke="none" pointer-events="all"/><path d="M 509 130 L 589 130 L 589 210 L 509 210 L 509 130 Z" fill="none" stroke="rgb(0, 0, 0)" stroke-miterlimit="10" pointer-events="all"/><path d="M 384 22 L 464 22 L 464 102 L 384 102 L 384 22 Z" fill="rgb(255, 255, 255)" stroke="none" pointer-events="all"/><path d="M 389 27 L 389 97 L 389 97 L 459 97 L 459 27 L 389 27" fill="none" stroke="none" pointer-events="all"/><path d="M 384 22 L 464 22 L 464 102 L 384 102 L 384 22 Z" fill="none" stroke="rgb(0, 0, 0)" stroke-miterlimit="10" pointer-events="all"/><path d="M 509 22 L 589 22 L 589 102 L 509 102 L 509 22 Z" fill="rgb(255, 255, 255)" stroke="none" pointer-events="all"/><path d="M 514 27 L 514 97 L 514 97 L 584 97 L 584 27 L 514 27" fill="none" stroke="none" pointer-events="all"/><path d="M 509 22 L 589 22 L 589 102 L 509 102 L 509 22 Z" fill="none" stroke="rgb(0, 0, 0)" stroke-miterlimit="10" pointer-events="all"/><path d="M 41 604.63 L 121 604.63 L 121 684.63 L 41 684.63 L 41 604.63 Z" fill="rgb(255, 255, 255)" stroke="none" pointer-events="all"/><path d="M 46 609.63 L 46 679.63 L 46 679.63 L 116 679.63 L 116 609.63 L 46 609.63" fill="none" stroke="none" pointer-events="all"/><path d="M 41 604.63 L 121 604.63 L 121 684.63 L 41 684.63 L 41 604.63 Z" fill="none" stroke="rgb(0, 0, 0)" stroke-miterlimit="10" pointer-events="all"/><path d="M 244 604.63 L 324 604.63 L 324 684.63 L 244 684.63 L 244 604.63 Z" fill="rgb(255, 255, 255)" stroke="none" pointer-events="all"/><path d="M 249 609.63 L 249 679.63 L 249 679.63 L 319 679.63 L 319 609.63 L 249 609.63" fill="none" stroke="none" pointer-events="all"/><path d="M 244 604.63 L 324 604.63 L 324 684.63 L 244 684.63 L 244 604.63 Z" fill="none" stroke="rgb(0, 0, 0)" stroke-miterlimit="10" pointer-events="all"/><path d="M 384 362 L 464 362 L 464 442 L 384 442 L 384 362 Z" fill="rgb(255, 255, 255)" stroke="none" pointer-events="all"/><path d="M 389 367 L 389 437 L 389 437 L 459 437 L 459 367 L 389 367" fill="none" stroke="none" pointer-events="all"/><path d="M 384 362 L 464 362 L 464 442 L 384 442 L 384 362 Z" fill="none" stroke="rgb(0, 0, 0)" stroke-miterlimit="10" pointer-events="all"/><path d="M 509 362 L 589 362 L 589 442 L 509 442 L 509 362 Z" fill="rgb(255, 255, 255)" stroke="none" pointer-events="all"/><path d="M 514 367 L 514 437 L 514 437 L 584 437 L 584 367 L 514 367" fill="none" stroke="none" pointer-events="all"/><path d="M 509 362 L 589 362 L 589 442 L 509 442 L 509 362 Z" fill="none" stroke="rgb(0, 0, 0)" stroke-miterlimit="10" pointer-events="all"/><path d="M 634 362 L 714 362 L 714 442 L 634 442 L 634 362 Z" fill="rgb(255, 255, 255)" stroke="none" pointer-events="all"/><path d="M 639 367 L 639 437 L 639 437 L 709 437 L 709 367 L 639 367" fill="none" stroke="none" pointer-events="all"/><path d="M 634 362 L 714 362 L 714 442 L 634 442 L 634 362 Z" fill="none" stroke="rgb(0, 0, 0)" stroke-miterlimit="10" pointer-events="all"/><path d="M 734 362 L 814 362 L 814 442 L 734 442 L 734 362 Z" fill="rgb(255, 255, 255)" stroke="none" pointer-events="all"/><path d="M 739 367 L 739 437 L 739 437 L 809 437 L 809 367 L 739 367" fill="none" stroke="none" pointer-events="all"/><path d="M 734 362 L 814 362 L 814 442 L 734 442 L 734 362 Z" fill="none" stroke="rgb(0, 0, 0)" stroke-miterlimit="10" pointer-events="all"/><path d="M 834 362 L 914 362 L 914 442 L 834 442 L 834 362 Z" fill="rgb(255, 255, 255)" stroke="none" pointer-events="all"/><path d="M 839 367 L 839 437 L 839 437 L 909 437 L 909 367 L 839 367" fill="none" stroke="none" pointer-events="all"/><path d="M 834 362 L 914 362 L 914 442 L 834 442 L 834 362 Z" fill="none" stroke="rgb(0, 0, 0)" stroke-miterlimit="10" pointer-events="all"/><path d="M 144 604.63 L 224 604.63 L 224 684.63 L 144 684.63 L 144 604.63 Z" fill="rgb(255, 255, 255)" stroke="none" pointer-events="all"/><path d="M 149 609.63 L 149 679.63 L 149 679.63 L 219 679.63 L 219 609.63 L 149 609.63" fill="none" stroke="none" pointer-events="all"/><path d="M 144 604.63 L 224 604.63 L 224 684.63 L 144 684.63 L 144 604.63 Z" fill="none" stroke="rgb(0, 0, 0)" stroke-miterlimit="10" pointer-events="all"/><path d="M 41 485.63 L 121 485.63 L 121 565.63 L 41 565.63 L 41 485.63 Z" fill="rgb(255, 255, 255)" stroke="none" pointer-events="all"/><path d="M 46 490.63 L 46 560.63 L 46 560.63 L 116 560.63 L 116 490.63 L 46 490.63" fill="none" stroke="none" pointer-events="all"/><path d="M 41 485.63 L 121 485.63 L 121 565.63 L 41 565.63 L 41 485.63 Z" fill="none" stroke="rgb(0, 0, 0)" stroke-miterlimit="10" pointer-events="all"/><path d="M 244 485.63 L 324 485.63 L 324 565.63 L 244 565.63 L 244 485.63 Z" fill="rgb(255, 255, 255)" stroke="none" pointer-events="all"/><path d="M 249 490.63 L 249 560.63 L 249 560.63 L 319 560.63 L 319 490.63 L 249 490.63" fill="none" stroke="none" pointer-events="all"/><path d="M 244 485.63 L 324 485.63 L 324 565.63 L 244 565.63 L 244 485.63 Z" fill="none" stroke="rgb(0, 0, 0)" stroke-miterlimit="10" pointer-events="all"/><path d="M 144 485.63 L 224 485.63 L 224 565.63 L 144 565.63 L 144 485.63 Z" fill="rgb(255, 255, 255)" stroke="none" pointer-events="all"/><path d="M 149 490.63 L 149 560.63 L 149 560.63 L 219 560.63 L 219 490.63 L 149 490.63" fill="none" stroke="none" pointer-events="all"/><path d="M 144 485.63 L 224 485.63 L 224 565.63 L 144 565.63 L 144 485.63 Z" fill="none" stroke="rgb(0, 0, 0)" stroke-miterlimit="10" pointer-events="all"/><path d="M 41 364.63 L 121 364.63 L 121 444.63 L 41 444.63 L 41 364.63 Z" fill="rgb(255, 255, 255)" stroke="none" pointer-events="all"/><path d="M 46 369.63 L 46 439.63 L 46 439.63 L 116 439.63 L 116 369.63 L 46 369.63" fill="none" stroke="none" pointer-events="all"/><path d="M 41 364.63 L 121 364.63 L 121 444.63 L 41 444.63 L 41 364.63 Z" fill="none" stroke="rgb(0, 0, 0)" stroke-miterlimit="10" pointer-events="all"/><path d="M 244 364.63 L 324 364.63 L 324 444.63 L 244 444.63 L 244 364.63 Z" fill="rgb(255, 255, 255)" stroke="none" pointer-events="all"/><path d="M 249 369.63 L 249 439.63 L 249 439.63 L 319 439.63 L 319 369.63 L 249 369.63" fill="none" stroke="none" pointer-events="all"/><path d="M 244 364.63 L 324 364.63 L 324 444.63 L 244 444.63 L 244 364.63 Z" fill="none" stroke="rgb(0, 0, 0)" stroke-miterlimit="10" pointer-events="all"/><path d="M 144 364.63 L 224 364.63 L 224 444.63 L 144 444.63 L 144 364.63 Z" fill="rgb(255, 255, 255)" stroke="none" pointer-events="all"/><path d="M 149 369.63 L 149 439.63 L 149 439.63 L 219 439.63 L 219 369.63 L 149 369.63" fill="none" stroke="none" pointer-events="all"/><path d="M 144 364.63 L 224 364.63 L 224 444.63 L 144 444.63 L 144 364.63 Z" fill="none" stroke="rgb(0, 0, 0)" stroke-miterlimit="10" pointer-events="all"/><path d="M 41 239.63 L 121 239.63 L 121 319.63 L 41 319.63 L 41 239.63 Z" fill="rgb(255, 255, 255)" stroke="none" pointer-events="all"/><path d="M 46 244.63 L 46 314.63 L 46 314.63 L 116 314.63 L 116 244.63 L 46 244.63" fill="none" stroke="none" pointer-events="all"/><path d="M 41 239.63 L 121 239.63 L 121 319.63 L 41 319.63 L 41 239.63 Z" fill="none" stroke="rgb(0, 0, 0)" stroke-miterlimit="10" pointer-events="all"/><path d="M 244 239.63 L 324 239.63 L 324 319.63 L 244 319.63 L 244 239.63 Z" fill="rgb(255, 255, 255)" stroke="none" pointer-events="all"/><path d="M 249 244.63 L 249 314.63 L 249 314.63 L 319 314.63 L 319 244.63 L 249 244.63" fill="none" stroke="none" pointer-events="all"/><path d="M 244 239.63 L 324 239.63 L 324 319.63 L 244 319.63 L 244 239.63 Z" fill="none" stroke="rgb(0, 0, 0)" stroke-miterlimit="10" pointer-events="all"/><path d="M 144 239.63 L 224 239.63 L 224 319.63 L 144 319.63 L 144 239.63 Z" fill="rgb(255, 255, 255)" stroke="none" pointer-events="all"/><path d="M 149 244.63 L 149 314.63 L 149 314.63 L 219 314.63 L 219 244.63 L 149 244.63" fill="none" stroke="none" pointer-events="all"/><path d="M 144 239.63 L 224 239.63 L 224 319.63 L 144 319.63 L 144 239.63 Z" fill="none" stroke="rgb(0, 0, 0)" stroke-miterlimit="10" pointer-events="all"/><path d="M 41 131.63 L 121 131.63 L 121 211.63 L 41 211.63 L 41 131.63 Z" fill="rgb(255, 255, 255)" stroke="none" pointer-events="all"/><path d="M 46 136.63 L 46 206.63 L 46 206.63 L 116 206.63 L 116 136.63 L 46 136.63" fill="none" stroke="none" pointer-events="all"/><path d="M 41 131.63 L 121 131.63 L 121 211.63 L 41 211.63 L 41 131.63 Z" fill="none" stroke="rgb(0, 0, 0)" stroke-miterlimit="10" pointer-events="all"/><path d="M 244 131.63 L 324 131.63 L 324 211.63 L 244 211.63 L 244 131.63 Z" fill="rgb(255, 255, 255)" stroke="none" pointer-events="all"/><path d="M 249 136.63 L 249 206.63 L 249 206.63 L 319 206.63 L 319 136.63 L 249 136.63" fill="none" stroke="none" pointer-events="all"/><path d="M 244 131.63 L 324 131.63 L 324 211.63 L 244 211.63 L 244 131.63 Z" fill="none" stroke="rgb(0, 0, 0)" stroke-miterlimit="10" pointer-events="all"/><path d="M 144 131.63 L 224 131.63 L 224 211.63 L 144 211.63 L 144 131.63 Z" fill="rgb(255, 255, 255)" stroke="none" pointer-events="all"/><path d="M 149 136.63 L 149 206.63 L 149 206.63 L 219 206.63 L 219 136.63 L 149 136.63" fill="none" stroke="none" pointer-events="all"/><path d="M 144 131.63 L 224 131.63 L 224 211.63 L 144 211.63 L 144 131.63 Z" fill="none" stroke="rgb(0, 0, 0)" stroke-miterlimit="10" pointer-events="all"/><path d="M 41 25.63 L 121 25.63 L 121 105.63 L 41 105.63 L 41 25.63 Z" fill="rgb(255, 255, 255)" stroke="none" pointer-events="all"/><path d="M 46 30.63 L 46 100.63 L 46 100.63 L 116 100.63 L 116 30.63 L 46 30.63" fill="none" stroke="none" pointer-events="all"/><path d="M 41 25.63 L 121 25.63 L 121 105.63 L 41 105.63 L 41 25.63 Z" fill="none" stroke="rgb(0, 0, 0)" stroke-miterlimit="10" pointer-events="all"/><path d="M 244 25.63 L 324 25.63 L 324 105.63 L 244 105.63 L 244 25.63 Z" fill="rgb(255, 255, 255)" stroke="none" pointer-events="all"/><path d="M 249 30.63 L 249 100.63 L 249 100.63 L 319 100.63 L 319 30.63 L 249 30.63" fill="none" stroke="none" pointer-events="all"/><path d="M 244 25.63 L 324 25.63 L 324 105.63 L 244 105.63 L 244 25.63 Z" fill="none" stroke="rgb(0, 0, 0)" stroke-miterlimit="10" pointer-events="all"/><path d="M 144 25.63 L 224 25.63 L 224 105.63 L 144 105.63 L 144 25.63 Z" fill="rgb(255, 255, 255)" stroke="none" pointer-events="all"/><path d="M 149 30.63 L 149 100.63 L 149 100.63 L 219 100.63 L 219 30.63 L 149 30.63" fill="none" stroke="none" pointer-events="all"/><path d="M 144 25.63 L 224 25.63 L 224 105.63 L 144 105.63 L 144 25.63 Z" fill="none" stroke="rgb(0, 0, 0)" stroke-miterlimit="10" pointer-events="all"/><path d="M 934 362 L 1014 362 L 1014 442 L 934 442 L 934 362 Z" fill="rgb(255, 255, 255)" stroke="none" pointer-events="all"/><path d="M 939 367 L 939 437 L 939 437 L 1009 437 L 1009 367 L 939 367" fill="none" stroke="none" pointer-events="all"/><path d="M 934 362 L 1014 362 L 1014 442 L 934 442 L 934 362 Z" fill="none" stroke="rgb(0, 0, 0)" stroke-miterlimit="10" pointer-events="all"/><path d="M 634 488 L 714 488 L 714 568 L 634 568 L 634 488 Z" fill="rgb(255, 255, 255)" stroke="none" pointer-events="all"/><path d="M 639 493 L 639 563 L 639 563 L 709 563 L 709 493 L 639 493" fill="none" stroke="none" pointer-events="all"/><path d="M 634 488 L 714 488 L 714 568 L 634 568 L 634 488 Z" fill="none" stroke="rgb(0, 0, 0)" stroke-miterlimit="10" pointer-events="all"/><path d="M 734 488 L 814 488 L 814 568 L 734 568 L 734 488 Z" fill="rgb(255, 255, 255)" stroke="none" pointer-events="all"/><path d="M 739 493 L 739 563 L 739 563 L 809 563 L 809 493 L 739 493" fill="none" stroke="none" pointer-events="all"/><path d="M 734 488 L 814 488 L 814 568 L 734 568 L 734 488 Z" fill="none" stroke="rgb(0, 0, 0)" stroke-miterlimit="10" pointer-events="all"/><path d="M 834 488 L 914 488 L 914 568 L 834 568 L 834 488 Z" fill="rgb(255, 255, 255)" stroke="none" pointer-events="all"/><path d="M 839 493 L 839 563 L 839 563 L 909 563 L 909 493 L 839 493" fill="none" stroke="none" pointer-events="all"/><path d="M 834 488 L 914 488 L 914 568 L 834 568 L 834 488 Z" fill="none" stroke="rgb(0, 0, 0)" stroke-miterlimit="10" pointer-events="all"/><path d="M 934 488 L 1014 488 L 1014 568 L 934 568 L 934 488 Z" fill="rgb(255, 255, 255)" stroke="none" pointer-events="all"/><path d="M 939 493 L 939 563 L 939 563 L 1009 563 L 1009 493 L 939 493" fill="none" stroke="none" pointer-events="all"/><path d="M 934 488 L 1014 488 L 1014 568 L 934 568 L 934 488 Z" fill="none" stroke="rgb(0, 0, 0)" stroke-miterlimit="10" pointer-events="all"/><path d="M 634 606 L 714 606 L 714 686 L 634 686 L 634 606 Z" fill="rgb(255, 255, 255)" stroke="none" pointer-events="all"/><path d="M 639 611 L 639 681 L 639 681 L 709 681 L 709 611 L 639 611" fill="none" stroke="none" pointer-events="all"/><path d="M 634 606 L 714 606 L 714 686 L 634 686 L 634 606 Z" fill="none" stroke="rgb(0, 0, 0)" stroke-miterlimit="10" pointer-events="all"/><path d="M 734 606 L 814 606 L 814 686 L 734 686 L 734 606 Z" fill="rgb(255, 255, 255)" stroke="none" pointer-events="all"/><path d="M 739 611 L 739 681 L 739 681 L 809 681 L 809 611 L 739 611" fill="none" stroke="none" pointer-events="all"/><path d="M 734 606 L 814 606 L 814 686 L 734 686 L 734 606 Z" fill="none" stroke="rgb(0, 0, 0)" stroke-miterlimit="10" pointer-events="all"/><path d="M 834 606 L 914 606 L 914 686 L 834 686 L 834 606 Z" fill="rgb(255, 255, 255)" stroke="none" pointer-events="all"/><path d="M 839 611 L 839 681 L 839 681 L 909 681 L 909 611 L 839 611" fill="none" stroke="none" pointer-events="all"/><path d="M 834 606 L 914 606 L 914 686 L 834 686 L 834 606 Z" fill="none" stroke="rgb(0, 0, 0)" stroke-miterlimit="10" pointer-events="all"/><path d="M 934 606 L 1014 606 L 1014 686 L 934 686 L 934 606 Z" fill="rgb(255, 255, 255)" stroke="none" pointer-events="all"/><path d="M 939 611 L 939 681 L 939 681 L 1009 681 L 1009 611 L 939 611" fill="none" stroke="none" pointer-events="all"/><path d="M 934 606 L 1014 606 L 1014 686 L 934 686 L 934 606 Z" fill="none" stroke="rgb(0, 0, 0)" stroke-miterlimit="10" pointer-events="all"/><path d="M 636 238.63 L 716 238.63 L 716 318.63 L 636 318.63 L 636 238.63 Z" fill="rgb(255, 255, 255)" stroke="none" pointer-events="all"/><path d="M 641 243.63 L 641 313.63 L 641 313.63 L 711 313.63 L 711 243.63 L 641 243.63" fill="none" stroke="none" pointer-events="all"/><path d="M 636 238.63 L 716 238.63 L 716 318.63 L 636 318.63 L 636 238.63 Z" fill="none" stroke="rgb(0, 0, 0)" stroke-miterlimit="10" pointer-events="all"/><path d="M 731 238.63 L 811 238.63 L 811 318.63 L 731 318.63 L 731 238.63 Z" fill="rgb(255, 255, 255)" stroke="none" pointer-events="all"/><path d="M 736 243.63 L 736 313.63 L 736 313.63 L 806 313.63 L 806 243.63 L 736 243.63" fill="none" stroke="none" pointer-events="all"/><path d="M 731 238.63 L 811 238.63 L 811 318.63 L 731 318.63 L 731 238.63 Z" fill="none" stroke="rgb(0, 0, 0)" stroke-miterlimit="10" pointer-events="all"/><path d="M 636 130 L 716 130 L 716 210 L 636 210 L 636 130 Z" fill="rgb(255, 255, 255)" stroke="none" pointer-events="all"/><path d="M 641 135 L 641 205 L 641 205 L 711 205 L 711 135 L 641 135" fill="none" stroke="none" pointer-events="all"/><path d="M 636 130 L 716 130 L 716 210 L 636 210 L 636 130 Z" fill="none" stroke="rgb(0, 0, 0)" stroke-miterlimit="10" pointer-events="all"/><path d="M 731 130 L 811 130 L 811 210 L 731 210 L 731 130 Z" fill="rgb(255, 255, 255)" stroke="none" pointer-events="all"/><path d="M 736 135 L 736 205 L 736 205 L 806 205 L 806 135 L 736 135" fill="none" stroke="none" pointer-events="all"/><path d="M 731 130 L 811 130 L 811 210 L 731 210 L 731 130 Z" fill="none" stroke="rgb(0, 0, 0)" stroke-miterlimit="10" pointer-events="all"/><path d="M 636 22 L 716 22 L 716 102 L 636 102 L 636 22 Z" fill="rgb(255, 255, 255)" stroke="none" pointer-events="all"/><path d="M 641 27 L 641 97 L 641 97 L 711 97 L 711 27 L 641 27" fill="none" stroke="none" pointer-events="all"/><path d="M 636 22 L 716 22 L 716 102 L 636 102 L 636 22 Z" fill="none" stroke="rgb(0, 0, 0)" stroke-miterlimit="10" pointer-events="all"/><path d="M 731 22 L 811 22 L 811 102 L 731 102 L 731 22 Z" fill="rgb(255, 255, 255)" stroke="none" pointer-events="all"/><path d="M 736 27 L 736 97 L 736 97 L 806 97 L 806 27 L 736 27" fill="none" stroke="none" pointer-events="all"/><path d="M 731 22 L 811 22 L 811 102 L 731 102 L 731 22 Z" fill="none" stroke="rgb(0, 0, 0)" stroke-miterlimit="10" pointer-events="all"/><path d="M 835 238.63 L 915 238.63 L 915 318.63 L 835 318.63 L 835 238.63 Z" fill="rgb(255, 255, 255)" stroke="none" pointer-events="all"/><path d="M 840 243.63 L 840 313.63 L 840 313.63 L 910 313.63 L 910 243.63 L 840 243.63" fill="none" stroke="none" pointer-events="all"/><path d="M 835 238.63 L 915 238.63 L 915 318.63 L 835 318.63 L 835 238.63 Z" fill="none" stroke="rgb(0, 0, 0)" stroke-miterlimit="10" pointer-events="all"/><path d="M 930 238.63 L 1010 238.63 L 1010 318.63 L 930 318.63 L 930 238.63 Z" fill="rgb(255, 255, 255)" stroke="none" pointer-events="all"/><path d="M 935 243.63 L 935 313.63 L 935 313.63 L 1005 313.63 L 1005 243.63 L 935 243.63" fill="none" stroke="none" pointer-events="all"/><path d="M 930 238.63 L 1010 238.63 L 1010 318.63 L 930 318.63 L 930 238.63 Z" fill="none" stroke="rgb(0, 0, 0)" stroke-miterlimit="10" pointer-events="all"/><path d="M 835 130 L 915 130 L 915 210 L 835 210 L 835 130 Z" fill="rgb(255, 255, 255)" stroke="none" pointer-events="all"/><path d="M 840 135 L 840 205 L 840 205 L 910 205 L 910 135 L 840 135" fill="none" stroke="none" pointer-events="all"/><path d="M 835 130 L 915 130 L 915 210 L 835 210 L 835 130 Z" fill="none" stroke="rgb(0, 0, 0)" stroke-miterlimit="10" pointer-events="all"/><path d="M 930 130 L 1010 130 L 1010 210 L 930 210 L 930 130 Z" fill="rgb(255, 255, 255)" stroke="none" pointer-events="all"/><path d="M 935 135 L 935 205 L 935 205 L 1005 205 L 1005 135 L 935 135" fill="none" stroke="none" pointer-events="all"/><path d="M 930 130 L 1010 130 L 1010 210 L 930 210 L 930 130 Z" fill="none" stroke="rgb(0, 0, 0)" stroke-miterlimit="10" pointer-events="all"/><path d="M 835 22 L 915 22 L 915 102 L 835 102 L 835 22 Z" fill="rgb(255, 255, 255)" stroke="none" pointer-events="all"/><path d="M 840 27 L 840 97 L 840 97 L 910 97 L 910 27 L 840 27" fill="none" stroke="none" pointer-events="all"/><path d="M 835 22 L 915 22 L 915 102 L 835 102 L 835 22 Z" fill="none" stroke="rgb(0, 0, 0)" stroke-miterlimit="10" pointer-events="all"/><path d="M 930 22 L 1010 22 L 1010 102 L 930 102 L 930 22 Z" fill="rgb(255, 255, 255)" stroke="none" pointer-events="all"/><path d="M 935 27 L 935 97 L 935 97 L 1005 97 L 1005 27 L 935 27" fill="none" stroke="none" pointer-events="all"/><path d="M 930 22 L 1010 22 L 1010 102 L 930 102 L 930 22 Z" fill="none" stroke="rgb(0, 0, 0)" stroke-miterlimit="10" pointer-events="all"/></g></svg>