<?xml version="1.0" encoding="UTF-8"?>
<!DOCTYPE svg PUBLIC "-//W3C//DTD SVG 1.1//EN" "http://www.w3.org/Graphics/SVG/1.1/DTD/svg11.dtd">
<svg xmlns="http://www.w3.org/2000/svg" xmlns:xlink="http://www.w3.org/1999/xlink" version="1.1" width="1030px" height="718px" viewBox="-0.5 -0.5 1030 718"><defs/><g><path d="M 0 0 L 1029 0 L 1029 717 L 0 717 L 0 0 Z" fill="none" stroke="none" pointer-events="all"/><path d="M 5 5 L 5 712 L 5 712 L 1024 712 L 1024 5 L 5 5" fill="none" stroke="none" pointer-events="all"/><path d="M 0 0 L 1029 0 L 1029 717 L 0 717 L 0 0 Z" fill="none" stroke="rgb(0, 0, 0)" stroke-miterlimit="10" pointer-events="all"/><rect x="626" y="5" width="398" height="340" fill="#ffffff" stroke="rgb(0, 0, 0)" pointer-events="all"/><rect x="360" y="5" width="260" height="340" fill="#ffffff" stroke="rgb(0, 0, 0)" pointer-events="all"/><rect x="4" y="5" width="350" height="707" fill="rgb(255, 255, 255)" stroke="rgb(0, 0, 0)" pointer-events="all"/><rect x="359" y="457" width="262" height="255" fill="#ffffff" stroke="rgb(0, 0, 0)" pointer-events="all"/><rect x="626" y="452" width="398" height="260" fill="#ffffff" stroke="rgb(0, 0, 0)" pointer-events="all"/><rect x="359" y="350" width="665" height="102" fill="#ffffff" stroke="rgb(0, 0, 0)" pointer-events="all"/><rect x="954.35" y="359.42" width="71.93" height="5" fill="rgb(255, 255, 255)" stroke="rgb(0, 0, 0)" transform="rotate(90,990.32,397.96)" pointer-events="all"/><path d="M 954.35 364.42 C 954.35 404.15 986.55 436.35 1026.28 436.35 L 1026.28 364.42" fill="none" stroke="rgb(0, 0, 0)" stroke-miterlimit="10" transform="rotate(90,990.32,397.96)" pointer-events="all"/><rect x="375" y="452" width="65.33" height="5" fill="rgb(255, 255, 255)" stroke="rgb(0, 0, 0)" transform="translate(407.66,0)scale(-1,1)translate(-407.66,0)" pointer-events="all"/><path d="M 375 457 C 375 493.08 404.25 522.33 440.33 522.33 L 440.33 457" fill="none" stroke="rgb(0, 0, 0)" stroke-miterlimit="10" transform="translate(407.66,0)scale(-1,1)translate(-407.66,0)" pointer-events="all"/><rect x="554" y="285.71" width="60" height="5" fill="rgb(255, 255, 255)" stroke="rgb(0, 0, 0)" transform="translate(584,0)scale(-1,1)translate(-584,0)rotate(180,584,317.86)" pointer-events="all"/><path d="M 554 290.71 C 554 323.85 580.86 350.71 614 350.71 L 614 290.71" fill="none" stroke="rgb(0, 0, 0)" stroke-miterlimit="10" transform="translate(584,0)scale(-1,1)translate(-584,0)rotate(180,584,317.86)" pointer-events="all"/><rect x="283.62" y="359.9" width="76.27" height="5" fill="rgb(255, 255, 255)" stroke="rgb(0, 0, 0)" transform="translate(321.75,0)scale(-1,1)translate(-321.75,0)rotate(-90,321.75,397.33)" pointer-events="all"/><path d="M 283.62 364.9 C 283.62 407.02 317.77 441.17 359.89 441.17 L 359.89 364.9" fill="none" stroke="rgb(0, 0, 0)" stroke-miterlimit="10" transform="translate(321.75,0)scale(-1,1)translate(-321.75,0)rotate(-90,321.75,397.33)" pointer-events="all"/><rect x="738" y="285.71" width="60" height="5" fill="rgb(255, 255, 255)" stroke="rgb(0, 0, 0)" transform="translate(768,0)scale(-1,1)translate(-768,0)rotate(180,768,317.86)" pointer-events="all"/><path d="M 738 290.71 C 738 323.85 764.86 350.71 798 350.71 L 798 290.71" fill="none" stroke="rgb(0, 0, 0)" stroke-miterlimit="10" transform="translate(768,0)scale(-1,1)translate(-768,0)rotate(180,768,317.86)" pointer-events="all"/><rect x="837" y="452" width="187" height="5" fill="#ffffff" stroke="rgb(0, 0, 0)" pointer-events="all"/><rect x="887" y="457" width="137" height="255" fill="#ffffff" stroke="rgb(0, 0, 0)" pointer-events="all"/></g></svg>